<svg width="357" height="59" viewBox="0 0 357 59" fill="none" xmlns="http://www.w3.org/2000/svg">
<path d="M341.561 52.3759C339.364 52.3759 337.335 51.9477 335.474 51.0914C333.649 50.1979 332.197 48.932 331.118 47.2938L331.844 45.8418V51.7057H324.975V9.42969H332.291V27.3565L331.174 25.8486C332.216 24.2105 333.631 22.9446 335.418 22.0511C337.205 21.1203 339.271 20.6549 341.617 20.6549C344.484 20.6549 347.071 21.3623 349.38 22.7771C351.688 24.1919 353.512 26.0906 354.853 28.4734C356.23 30.8562 356.919 33.5369 356.919 36.5154C356.919 39.4567 356.249 42.1373 354.908 44.5573C353.568 46.9774 351.744 48.8948 349.435 50.3095C347.127 51.6871 344.502 52.3759 341.561 52.3759ZM340.723 45.6743C342.399 45.6743 343.888 45.2833 345.191 44.5015C346.494 43.7196 347.499 42.6399 348.207 41.2624C348.951 39.8848 349.324 38.3025 349.324 36.5154C349.324 34.7283 348.951 33.1646 348.207 31.8243C347.499 30.4467 346.494 29.367 345.191 28.5851C343.888 27.7661 342.399 27.3565 340.723 27.3565C339.122 27.3565 337.67 27.7474 336.367 28.5293C335.101 29.3111 334.096 30.4095 333.352 31.8243C332.644 33.2018 332.291 34.7655 332.291 36.5154C332.291 38.3025 332.644 39.8848 333.352 41.2624C334.096 42.6399 335.101 43.7196 336.367 44.5015C337.67 45.2833 339.122 45.6743 340.723 45.6743Z" fill="#406DFF"/>
<path d="M305.733 52.3772C303.611 52.3772 301.768 52.0235 300.205 51.3161C298.641 50.6088 297.431 49.6035 296.575 48.3004C295.718 46.9601 295.29 45.415 295.29 43.6651C295.29 41.9897 295.662 40.5005 296.407 39.1974C297.152 37.8571 298.306 36.7401 299.869 35.8466C301.433 34.953 303.406 34.3201 305.789 33.9478L315.73 32.3282V37.9129L307.185 39.3649C305.733 39.6255 304.654 40.0909 303.946 40.7611C303.239 41.4313 302.885 42.3062 302.885 43.3859C302.885 44.4284 303.276 45.2661 304.058 45.899C304.877 46.4947 305.882 46.7926 307.074 46.7926C308.6 46.7926 309.941 46.4761 311.095 45.8432C312.286 45.173 313.198 44.2608 313.831 43.1067C314.501 41.9525 314.836 40.6866 314.836 39.3091V31.4905C314.836 30.1874 314.315 29.1077 313.273 28.2514C312.267 27.3579 310.927 26.9111 309.252 26.9111C307.688 26.9111 306.292 27.3393 305.063 28.1956C303.872 29.0147 302.997 30.113 302.438 31.4905L296.463 28.5865C297.059 26.9856 297.989 25.608 299.255 24.4538C300.558 23.2624 302.085 22.3317 303.835 21.6615C305.584 20.9913 307.483 20.6562 309.531 20.6562C312.025 20.6562 314.222 21.1216 316.121 22.0524C318.02 22.946 319.49 24.2118 320.533 25.85C321.613 27.4509 322.152 29.3311 322.152 31.4905V51.7071H315.227V46.5133L316.791 46.4016C316.009 47.7047 315.078 48.803 313.999 49.6966C312.919 50.5529 311.69 51.2231 310.313 51.7071C308.935 52.1538 307.409 52.3772 305.733 52.3772Z" fill="#406DFF"/>
<path d="M267.057 51.6996V10.0938H274.652V44.998H292.467V51.6996H267.057Z" fill="#406DFF"/>
<path d="M245.383 52.3694C242.404 52.3694 239.686 51.6806 237.229 50.3031C234.809 48.9255 232.873 47.0454 231.421 44.6626C230.006 42.2798 229.299 39.5619 229.299 36.5089C229.299 33.456 230.006 30.7381 231.421 28.3553C232.873 25.9725 234.809 24.0923 237.229 22.7148C239.649 21.3372 242.367 20.6484 245.383 20.6484C248.361 20.6484 251.06 21.3372 253.48 22.7148C255.901 24.0923 257.818 25.9725 259.233 28.3553C260.685 30.7009 261.411 33.4187 261.411 36.5089C261.411 39.5619 260.685 42.2798 259.233 44.6626C257.781 47.0454 255.845 48.9255 253.425 50.3031C251.005 51.6806 248.324 52.3694 245.383 52.3694ZM245.383 45.6678C247.021 45.6678 248.454 45.2769 249.683 44.495C250.949 43.7132 251.935 42.6335 252.643 41.2559C253.387 39.8411 253.76 38.2588 253.76 36.5089C253.76 34.7218 253.387 33.1581 252.643 31.8178C251.935 30.4402 250.949 29.3605 249.683 28.5787C248.454 27.7596 247.021 27.3501 245.383 27.3501C243.707 27.3501 242.237 27.7596 240.971 28.5787C239.705 29.3605 238.7 30.4402 237.955 31.8178C237.248 33.1581 236.894 34.7218 236.894 36.5089C236.894 38.2588 237.248 39.8411 237.955 41.2559C238.7 42.6335 239.705 43.7132 240.971 44.495C242.237 45.2769 243.707 45.6678 245.383 45.6678Z" fill="#111111"/>
<path d="M212.683 52.3694C209.667 52.3694 206.949 51.6806 204.529 50.3031C202.146 48.8883 200.266 46.9895 198.889 44.6067C197.511 42.1867 196.822 39.4688 196.822 36.4531C196.822 33.4374 197.511 30.7381 198.889 28.3553C200.266 25.9725 202.146 24.0923 204.529 22.7148C206.949 21.3372 209.667 20.6484 212.683 20.6484C214.842 20.6484 216.853 21.0394 218.714 21.8212C220.576 22.5658 222.177 23.6083 223.517 24.9486C224.895 26.2517 225.881 27.8154 226.477 29.6398L220.055 32.4321C219.496 30.9056 218.547 29.677 217.206 28.7462C215.903 27.8154 214.395 27.3501 212.683 27.3501C211.082 27.3501 209.648 27.741 208.383 28.5228C207.154 29.3047 206.186 30.3844 205.479 31.762C204.771 33.1395 204.417 34.7218 204.417 36.5089C204.417 38.296 204.771 39.8784 205.479 41.2559C206.186 42.6335 207.154 43.7132 208.383 44.495C209.648 45.2769 211.082 45.6678 212.683 45.6678C214.433 45.6678 215.959 45.2024 217.262 44.2716C218.565 43.3409 219.496 42.0936 220.055 40.5299L226.477 43.4339C225.881 45.1466 224.913 46.6917 223.573 48.0692C222.233 49.4095 220.632 50.4706 218.77 51.2525C216.908 51.9971 214.879 52.3694 212.683 52.3694Z" fill="#111111"/>
<path d="M186.684 51.6996V21.319H194V51.6996H186.684ZM186.684 17.9123V10.0938H194V17.9123H186.684Z" fill="#111111"/>
<path d="M167.274 52.3681C164.333 52.3681 161.708 51.6793 159.399 50.3017C157.091 48.8869 155.267 46.9695 153.927 44.5495C152.586 42.1295 151.916 39.4488 151.916 36.5076C151.916 33.5291 152.586 30.8484 153.927 28.4656C155.267 26.0828 157.091 24.184 159.399 22.7693C161.745 21.3545 164.351 20.6471 167.218 20.6471C169.526 20.6471 171.574 21.1125 173.361 22.0433C175.186 22.9368 176.619 24.2027 177.661 25.8408L176.544 27.3487V9.42188H183.86V51.6979H176.935V45.834L177.717 47.286C176.675 48.9242 175.223 50.19 173.361 51.0836C171.5 51.9399 169.471 52.3681 167.274 52.3681ZM168.056 45.6665C169.731 45.6665 171.202 45.2755 172.468 44.4937C173.733 43.7118 174.72 42.6321 175.428 41.2546C176.172 39.877 176.544 38.2947 176.544 36.5076C176.544 34.7577 176.172 33.194 175.428 31.8164C174.72 30.4017 173.733 29.3033 172.468 28.5215C171.202 27.7396 169.731 27.3487 168.056 27.3487C166.418 27.3487 164.947 27.7582 163.644 28.5773C162.341 29.3592 161.317 30.4389 160.572 31.8164C159.865 33.1568 159.511 34.7205 159.511 36.5076C159.511 38.2947 159.865 39.877 160.572 41.2546C161.317 42.6321 162.341 43.7118 163.644 44.4937C164.947 45.2755 166.418 45.6665 168.056 45.6665Z" fill="#111111"/>
<path d="M122.176 51.6993V21.3186H129.045V27.2942L128.486 26.2331C129.194 24.4088 130.348 23.0312 131.949 22.1005C133.587 21.1324 135.486 20.6484 137.645 20.6484C139.879 20.6484 141.852 21.1324 143.565 22.1005C145.315 23.0685 146.674 24.4274 147.642 26.1773C148.61 27.8899 149.094 29.8818 149.094 32.1529V51.6993H141.778V33.8841C141.778 32.5438 141.517 31.3896 140.996 30.4216C140.475 29.4536 139.749 28.709 138.818 28.1878C137.925 27.6293 136.863 27.3501 135.635 27.3501C134.443 27.3501 133.382 27.6293 132.452 28.1878C131.521 28.709 130.795 29.4536 130.274 30.4216C129.752 31.3896 129.492 32.5438 129.492 33.8841V51.6993H122.176Z" fill="#111111"/>
<path d="M110.446 51.7003V21.3197H117.762V51.7003H110.446ZM110.502 15.9584L114.132 6.29688H123.626L117.706 15.9584H110.502Z" fill="#111111"/>
<path d="M93.1601 52.3681C90.5167 52.3681 88.0594 51.8841 85.7883 50.916C83.5545 49.948 81.6184 48.6077 79.9803 46.8951C78.3793 45.1452 77.2065 43.1161 76.4619 40.8078L82.7726 38.0713C83.7778 40.4541 85.2299 42.3343 87.1287 43.7118C89.0274 45.0521 91.1682 45.7223 93.551 45.7223C94.8914 45.7223 96.0455 45.5175 97.0135 45.108C98.0188 44.6612 98.782 44.0655 99.3033 43.3209C99.8617 42.5763 100.141 41.6827 100.141 40.6402C100.141 39.4116 99.7686 38.4064 99.024 37.6245C98.3166 36.8054 97.2369 36.1725 95.7849 35.7257L87.7988 33.1568C84.5597 32.1515 82.1211 30.6437 80.4829 28.6332C78.8447 26.6227 78.0256 24.2585 78.0256 21.5406C78.0256 19.1578 78.6027 17.0543 79.7569 15.2299C80.9483 13.4056 82.5864 11.9908 84.6714 10.9856C86.7936 9.94311 89.2136 9.42188 91.9315 9.42188C94.426 9.42188 96.7157 9.86865 98.8006 10.7622C100.886 11.6185 102.673 12.8285 104.162 14.3922C105.688 15.9187 106.824 17.7244 107.569 19.8094L101.314 22.6017C100.495 20.5168 99.266 18.9158 97.6278 17.7989C95.9897 16.6447 94.0909 16.0676 91.9315 16.0676C90.6656 16.0676 89.5487 16.291 88.5807 16.7378C87.6127 17.1473 86.8494 17.743 86.2909 18.5249C85.7697 19.2695 85.5091 20.1631 85.5091 21.2056C85.5091 22.3597 85.8814 23.3836 86.626 24.2771C87.3707 25.1334 88.5062 25.8036 90.0327 26.2876L97.6837 28.689C100.997 29.7687 103.473 31.258 105.111 33.1568C106.787 35.0556 107.624 37.4011 107.624 40.1935C107.624 42.5763 107.01 44.6798 105.781 46.5042C104.553 48.3285 102.859 49.7619 100.699 50.8044C98.54 51.8468 96.0269 52.3681 93.1601 52.3681Z" fill="#111111"/>
<path d="M35.546 19.1411H17.7923V36.9494H17.7666C7.95446 36.9302 0 28.9661 0 19.1443C0 9.32255 7.97375 1.33594 17.8051 1.33594C27.6365 1.33594 35.546 9.30648 35.546 19.1411Z" fill="#111111"/>
<path d="M35.5209 21.0703V36.8957L19.7148 36.9503V21.0703H35.5209Z" fill="#406DFF"/>
<path d="M55.2503 39.0903C55.2503 48.9249 47.2797 56.8987 37.4451 56.8987C27.6105 56.8987 19.6914 48.7257 19.6914 38.8911H28.2244L37.4451 38.8332V29.0243L37.4708 21.0859C47.2862 21.1052 55.2503 29.2718 55.2503 39.0935V39.0903Z" fill="#111111"/>
<path d="M35.7524 58.6746H20.1874C9.27929 58.6746 0.43457 49.8299 0.43457 38.9219H17.8315C17.8315 49.4571 25.9274 58.6746 35.7524 58.6746Z" fill="#111111"/>
<path d="M20.0049 0H35.2292C45.787 0 54.3457 8.55868 54.3457 19.1164H37.4308C37.4308 8.36905 30.0291 0 20.0049 0Z" fill="#111111"/>
</svg>
