<svg width="420" height="63" viewBox="0 0 420 63" fill="none" xmlns="http://www.w3.org/2000/svg">
<g clip-path="url(#clip0_3711_960)">
<path d="M106.746 18.3002C111.734 18.3002 114.344 21.4282 115.111 25.5483H122.939C121.864 17.3846 115.955 11.4336 106.746 11.4336C97.5372 11.4336 89.6328 18.6054 89.6328 29.4393C89.6328 40.2733 96.6163 47.5214 106.746 47.5214C116.876 47.5214 121.941 41.494 122.939 33.4067H115.111C114.344 37.5266 111.734 40.6548 106.746 40.6548C101.758 40.6548 97.4604 36.4586 97.4604 29.5157C97.4604 22.5728 100.99 18.3765 106.746 18.3765V18.3002Z" fill="white"/>
<path d="M142.895 11.4336C132.688 11.4336 125.781 18.6054 125.781 29.4393C125.781 40.2733 132.765 47.5214 142.895 47.5214C153.025 47.5214 160.009 40.3495 160.009 29.4393C160.009 18.5291 153.025 11.4336 142.895 11.4336ZM142.895 40.5785C137.139 40.5785 133.609 36.3822 133.609 29.4393C133.609 22.4964 137.139 18.3002 142.895 18.3002C148.651 18.3002 152.18 22.4201 152.18 29.4393C152.18 36.4584 148.728 40.5785 142.895 40.5785Z" fill="white"/>
<path d="M184.333 11.4336C177.887 11.4336 173.437 15.4772 171.901 22.4201V12.3491H164.074V46.6058H171.901V28.3711C171.901 21.9624 175.201 18.3765 180.727 18.3765C186.252 18.3765 188.477 21.5809 188.477 27.9134V46.6821H196.305V27.1504C196.305 17.232 191.931 11.5099 184.333 11.5099V11.4336Z" fill="white"/>
<path d="M226.693 22.8015C225.006 15.7059 220.632 11.4334 214.493 11.4334C208.353 11.4334 200.219 18.9104 200.219 29.4392C200.219 39.9679 206.127 47.5212 214.493 47.5212C222.857 47.5212 225.006 43.2486 226.693 36.1531V46.6056H234.522V0.675781H226.693V22.8778V22.8015ZM217.331 40.7308C211.347 40.7308 208.122 36.8398 208.122 29.4392C208.122 22.0384 211.347 18.1474 217.331 18.1474C223.317 18.1474 226.693 22.3436 226.693 29.4392C226.693 36.5346 223.241 40.7308 217.331 40.7308Z" fill="white"/>
<path d="M255.782 11.4336C245.575 11.4336 238.668 18.6054 238.668 29.4393C238.668 40.2733 245.652 47.5214 255.782 47.5214C265.912 47.5214 272.894 40.3495 272.894 29.4393C272.894 18.5291 265.912 11.4336 255.782 11.4336ZM255.782 40.5785C250.026 40.5785 246.496 36.3822 246.496 29.4393C246.496 22.4964 250.026 18.3002 255.782 18.3002C261.537 18.3002 265.068 22.4201 265.068 29.4393C265.068 36.4584 261.613 40.5785 255.782 40.5785Z" fill="white"/>
<path d="M297.295 11.4336C290.849 11.4336 286.399 15.4772 284.863 22.4201V0.599609H277.035V46.5294H284.863V28.2949C284.863 21.886 288.163 18.3002 293.689 18.3002C299.214 18.3002 301.439 21.5045 301.439 27.837V46.6058H309.268V27.0742C309.268 17.1558 304.894 11.4336 297.295 11.4336Z" fill="white"/>
<path d="M338.432 30.5843C338.432 36.9932 335.209 40.5791 329.607 40.5791C324.004 40.5791 321.856 37.3747 321.856 31.0422V12.2734H314.027V31.8051C314.027 41.7235 318.403 47.4456 326 47.4456C333.596 47.4456 336.897 43.4019 338.432 36.459V46.5301H346.26V12.2734H338.432V30.5843Z" fill="white"/>
<path d="M371.658 11.4336C365.518 11.4336 361.144 15.706 359.457 22.8016V0.599609H351.629V46.5294H359.457V36.077C361.144 43.1724 365.518 47.445 371.658 47.445C377.797 47.445 385.855 39.9681 385.855 29.363C385.855 18.7579 379.947 11.3573 371.658 11.3573V11.4336ZM368.819 40.731C362.91 40.731 359.457 36.5347 359.457 29.4393C359.457 22.3437 362.91 18.1475 368.819 18.1475C374.727 18.1475 378.028 22.0386 378.028 29.4393C378.028 36.8399 374.804 40.731 368.819 40.731Z" fill="white"/>
<path d="M411.874 12.3496L401.744 38.3663H400.593L393.379 12.3496H385.168L395.911 46.6063H398.521L392.458 62.2468L400.67 62.3994L419.854 12.3496H411.874Z" fill="white"/>
<path d="M52.4899 2.66016C50.9552 2.66016 49.497 3.4994 48.8065 4.87272L36.8347 26.6169C36.0673 27.9902 35.6836 29.4399 35.6836 30.9657V51.2603C35.6836 53.4729 37.5254 55.304 39.751 55.304H59.4734C61.1618 55.304 62.7733 54.3885 63.6176 52.8626L68.6825 43.707C69.3732 42.41 69.7568 40.9604 69.7568 39.5108V6.7038C69.7568 4.49124 67.915 2.66016 65.6896 2.66016H52.4899Z" fill="white"/>
<path d="M30.006 2.66016H10.2834C8.59506 2.66016 6.98348 3.57569 6.13932 5.1016L1.07438 14.2571C0.383703 15.5541 0 17.0037 0 18.4533V51.2603C0 53.4729 1.8418 55.304 4.06729 55.304H17.1901C18.7249 55.304 20.183 54.4647 20.8737 53.0914L32.8453 31.3472C33.6128 29.9739 33.9966 28.5243 33.9966 26.9984V6.7038C33.9966 4.49124 32.1548 2.66016 29.9292 2.66016H30.006Z" fill="white"/>
</g>
<defs>
<clipPath id="clip0_3711_960">
<rect width="420" height="63" fill="white"/>
</clipPath>
</defs>
</svg>
